<?xml version="1.0" standalone="no"?>
<svg version="1.0" xmlns="http://www.w3.org/2000/svg"
 width="160.000000pt" height="30.000000pt" viewBox="0 0 2560.000000 406.000000"
 preserveAspectRatio="xMidYMid meet">

<g transform="translate(0.000000,406.000000) scale(0.100000,-0.100000)"
fill="#000000" stroke="none">
<path fill='#EB001B' d="M6683 4046 c-89 -29 -148 -84 -180 -168 -10 -29 -17 -91 -20 -185
l-5 -142 718 -3 719 -3 57 -28 c68 -33 111 -82 135 -152 17 -46 18 -112 18
-830 0 -887 4 -845 -81 -929 -80 -81 -82 -81 -609 -81 l-460 0 -48 24 c-70 34
-102 87 -102 166 0 39 7 77 20 105 11 25 215 305 453 623 238 319 436 585 439
593 4 12 -87 14 -624 14 l-629 0 -294 -392 c-188 -249 -309 -420 -334 -470
-36 -71 -40 -86 -40 -157 0 -113 35 -178 239 -451 215 -287 341 -417 465 -478
161 -78 291 -92 900 -92 460 0 681 11 834 40 495 96 775 381 872 890 22 113
32 905 14 1078 -54 520 -306 847 -756 977 -199 58 -211 58 -964 61 -559 3
-703 1 -737 -10z"/>
<path d="M15513 3597 c-49 -35 -47 -43 16 -100 60 -54 128 -70 270 -65 134 5
176 21 235 89 l35 42 -41 33 -42 33 -29 -25 c-28 -23 -34 -24 -187 -24 -152 0
-160 1 -187 24 l-28 24 -42 -31z"/>
<path d="M10180 3080 l0 -540 110 0 110 0 0 145 0 145 63 0 c34 1 136 5 227 9
241 13 315 46 374 170 30 65 31 69 31 211 0 179 -15 231 -84 299 -85 84 -179
101 -573 101 l-258 0 0 -540z m648 329 c31 -20 42 -67 42 -190 0 -121 -10
-161 -46 -178 -16 -7 -97 -11 -224 -11 l-200 0 0 201 0 202 203 -5 c152 -3
208 -8 225 -19z"/>
<path d="M11533 3309 c-110 -21 -186 -77 -225 -163 -21 -46 -23 -66 -23 -216
0 -207 9 -245 79 -316 74 -76 139 -94 340 -94 277 0 385 62 416 238 15 82 8
320 -11 375 -29 87 -120 155 -234 176 -67 13 -280 13 -342 0z m354 -183 l28
-24 0 -182 0 -182 -28 -24 c-27 -23 -34 -24 -182 -24 -148 0 -155 1 -182 24
l-28 24 0 182 0 182 28 24 c27 23 34 24 182 24 148 0 155 -1 182 -24z"/>
<path d="M12546 3304 c-105 -25 -170 -82 -202 -176 -14 -42 -17 -85 -17 -213
0 -140 3 -167 22 -217 40 -103 126 -159 276 -177 79 -9 292 2 384 20 l61 12 0
79 c0 57 -4 80 -14 84 -7 3 -50 -4 -94 -15 -90 -23 -288 -29 -354 -10 -61 16
-68 41 -68 238 0 165 1 171 24 198 l24 28 130 0 c152 0 163 -5 188 -92 16 -56
19 -58 74 -44 19 6 54 15 78 21 41 11 42 12 42 53 0 100 -79 184 -199 211 -87
20 -273 20 -355 0z"/>
<path d="M13540 3309 c-107 -21 -182 -80 -217 -171 -23 -58 -25 -349 -4 -423
23 -77 97 -147 186 -175 103 -32 335 -29 508 6 27 6 27 6 27 90 0 61 -3 84
-12 84 -7 0 -47 -9 -88 -20 -84 -22 -287 -28 -353 -9 -65 18 -72 40 -72 224 0
178 5 209 38 226 32 17 203 24 255 10 37 -10 46 -19 63 -54 10 -23 19 -50 19
-59 0 -28 15 -29 106 -7 l86 22 -5 48 c-19 156 -133 221 -386 218 -58 -1 -126
-5 -151 -10z"/>
<path d="M16650 3309 c-65 -13 -147 -56 -175 -93 -50 -65 -59 -108 -59 -286
-1 -206 8 -244 78 -316 74 -75 144 -96 328 -95 120 0 209 8 301 27 27 6 27 6
27 90 0 61 -3 84 -12 84 -7 0 -47 -9 -88 -20 -84 -22 -287 -28 -353 -9 -65 18
-72 40 -72 224 0 178 5 209 38 226 32 17 203 24 255 10 37 -10 46 -19 63 -54
10 -23 19 -50 19 -59 0 -28 15 -29 106 -7 l86 22 -5 48 c-19 156 -133 221
-386 218 -58 -1 -126 -5 -151 -10z"/>
<path d="M19725 3306 c-69 -17 -106 -38 -147 -84 -58 -64 -72 -123 -72 -297 0
-115 4 -163 17 -208 23 -75 81 -135 163 -168 55 -22 73 -24 249 -24 122 0 211
5 248 13 l57 13 0 85 c0 54 -4 84 -11 84 -6 0 -47 -9 -92 -21 -68 -17 -105
-20 -233 -17 -182 4 -184 4 -191 101 l-6 65 244 4 c152 3 264 10 297 18 l52
13 0 83 c0 174 -40 256 -154 314 l-69 35 -151 2 c-97 2 -169 -2 -201 -11z
m314 -157 c38 -13 51 -41 51 -110 l0 -49 -191 0 -192 0 7 62 c6 65 24 94 60
101 47 9 235 6 265 -4z"/>
<path d="M14270 3068 c1 -374 20 -450 131 -512 47 -27 65 -31 151 -34 116 -5
202 17 286 73 30 19 55 35 56 35 1 0 20 -25 42 -55 21 -30 43 -55 48 -55 9 0
146 99 146 106 0 3 -10 18 -22 35 -23 30 -23 37 -26 335 l-3 304 -99 0 -100 0
0 -278 0 -278 -92 -22 c-119 -29 -246 -30 -278 -4 -32 26 -38 84 -39 355 l-1
227 -100 0 -100 0 0 -232z"/>
<path d="M15370 3018 c0 -156 5 -299 10 -318 18 -65 64 -125 114 -149 63 -31
168 -44 247 -32 58 10 176 60 225 96 20 14 22 12 64 -44 l43 -60 56 40 c31 23
65 47 76 55 17 12 18 17 7 32 -40 55 -42 73 -42 372 l0 290 -100 0 -100 0 0
-279 0 -279 -110 -27 c-134 -33 -226 -30 -266 10 l-24 24 0 276 0 275 -100 0
-100 0 0 -282z"/>
<path d="M17430 2915 l0 -386 98 3 97 3 3 148 3 147 124 0 125 0 0 -25 c0 -36
43 -118 106 -202 l54 -73 105 0 105 0 0 30 c0 23 -28 67 -116 185 -64 86 -115
157 -113 158 2 2 37 29 78 61 96 76 110 108 111 239 l0 97 -110 0 -110 0 0
-110 c0 -119 -9 -152 -47 -169 -14 -6 -84 -11 -168 -11 l-145 0 0 145 0 145
-100 0 -100 0 0 -385z"/>
<path d="M18463 3018 c5 -311 12 -356 65 -415 51 -55 106 -76 210 -81 117 -6
198 14 283 69 33 22 61 39 63 39 1 0 20 -25 42 -55 21 -30 43 -55 48 -55 9 0
146 99 146 106 0 3 -10 18 -22 35 -23 30 -23 37 -26 335 l-3 304 -99 0 -100 0
-2 -277 -3 -278 -80 -22 c-53 -14 -111 -22 -171 -22 -151 -2 -152 2 -153 367
l-1 232 -101 0 -101 0 5 -282z"/>
<path fill='#EB001B' d="M225 3031 c-57 -15 -102 -39 -137 -73 -66 -66 -88 -145 -88 -314 l0
-104 255 0 255 0 0 -1270 0 -1270 510 0 510 0 0 1271 0 1270 568 -3 c511 -3
571 -6 612 -21 118 -46 159 -161 103 -288 -11 -24 -216 -307 -456 -627 -241
-320 -437 -584 -437 -587 0 -3 285 -5 633 -5 l632 1 281 377 c155 207 298 404
318 437 51 86 72 178 57 251 -19 97 -52 151 -242 404 -303 404 -406 487 -669
542 -64 13 -2655 22 -2705 9z"/>
<path fill='#EB001B' d="M4907 2968 c-30 -40 -370 -498 -757 -1018 l-702 -945 623 -3 c584 -2
624 -1 640 15 21 23 1499 2012 1499 2018 0 3 -281 5 -625 5 l-625 0 -53 -72z"/>
<path d="M11924 1786 c-102 -24 -166 -73 -206 -161 -19 -43 -23 -71 -26 -196
-3 -89 0 -168 8 -202 38 -183 207 -257 524 -229 72 6 148 16 169 22 l37 11 0
79 0 80 -27 0 c-16 0 -53 -7 -83 -15 -76 -20 -368 -21 -395 -1 -15 11 -20 30
-23 85 l-4 71 228 0 c126 0 249 5 274 10 105 23 94 8 87 123 -8 128 -28 187
-81 242 -63 65 -132 86 -291 91 -88 3 -150 -1 -191 -10z m325 -173 c17 -15 22
-31 24 -83 l2 -65 -187 -3 -188 -2 0 58 c0 45 5 66 21 86 20 26 21 26 164 26
121 0 146 -3 164 -17z"/>
<path d="M14000 1791 c-107 -20 -177 -68 -217 -149 -28 -56 -28 -60 -28 -247
0 -188 0 -191 27 -242 69 -130 230 -180 500 -155 73 7 150 17 171 23 l37 10 0
79 0 80 -27 0 c-16 0 -53 -7 -83 -15 -38 -10 -106 -15 -217 -15 -146 0 -165 2
-182 19 -20 20 -39 127 -24 141 4 5 121 10 258 13 161 2 264 8 289 16 l38 13
-3 111 c-4 98 -8 119 -32 169 -32 66 -86 111 -162 134 -57 18 -276 27 -345 15z
m310 -181 c16 -16 20 -33 20 -85 l0 -65 -185 0 -185 0 0 65 c0 101 7 105 185
105 132 0 147 -2 165 -20z"/>
<path d="M14910 1794 c-8 -1 -48 -8 -87 -14 l-73 -12 0 -84 c0 -98 -7 -94 113
-63 67 17 105 20 214 17 106 -2 136 -6 143 -18 14 -22 12 -124 -2 -138 -8 -8
-55 -12 -145 -12 l-133 0 0 -70 0 -70 126 0 c69 0 134 -5 145 -10 16 -9 19
-22 19 -75 0 -53 -3 -66 -19 -75 -35 -18 -267 -12 -351 10 -116 30 -110 34
-110 -64 l0 -84 63 -12 c106 -21 351 -24 436 -6 88 18 155 56 177 98 24 46 29
126 11 169 -16 39 -65 81 -111 96 -44 14 -42 28 8 47 84 32 126 107 112 198
-15 91 -69 137 -192 163 -61 13 -299 19 -344 9z"/>
<path d="M18324 1786 c-102 -24 -165 -73 -206 -161 -21 -46 -23 -63 -23 -230
0 -161 2 -185 21 -225 66 -143 226 -197 508 -172 72 6 148 16 169 22 l37 11 0
79 0 80 -27 0 c-16 0 -53 -7 -83 -15 -76 -20 -368 -21 -395 -1 -15 11 -20 30
-23 85 l-4 71 228 0 c126 0 249 5 274 10 105 23 94 8 87 123 -8 128 -28 187
-81 242 -63 65 -132 86 -291 91 -88 3 -150 -1 -191 -10z m325 -173 c17 -15 22
-31 24 -83 l2 -65 -187 -3 -188 -2 0 58 c0 45 5 66 21 86 20 26 21 26 164 26
121 0 146 -3 164 -17z"/>
<path d="M20858 1790 c-136 -16 -220 -65 -265 -157 -28 -57 -28 -61 -28 -238
0 -167 2 -184 23 -230 62 -135 175 -180 432 -172 166 5 234 24 300 83 63 57
83 117 88 274 8 238 -30 340 -147 399 -77 39 -257 57 -403 41z m310 -194 c26
-26 27 -29 30 -174 2 -91 -1 -165 -8 -191 -17 -64 -48 -74 -227 -69 -194 4
-187 -3 -191 199 -5 216 3 245 74 260 21 4 97 7 167 5 124 -3 129 -4 155 -30z"/>
<path d="M23000 1790 c-137 -14 -228 -66 -274 -157 -39 -78 -46 -354 -11 -452
47 -135 163 -191 396 -191 188 0 285 28 356 102 57 59 67 96 71 274 5 183 -6
241 -57 311 -70 96 -242 137 -481 113z m294 -183 c34 -22 38 -53 34 -240 -4
-208 2 -201 -186 -205 -150 -4 -204 6 -224 41 -9 15 -13 73 -13 189 0 237 2
239 237 234 98 -2 132 -6 152 -19z"/>
<path d="M24005 1790 c-45 -4 -104 -13 -133 -19 l-52 -13 0 -79 0 -79 33 0
c17 0 57 7 87 15 36 10 104 15 198 15 141 0 143 0 153 -24 8 -16 8 -34 2 -53
-9 -27 -18 -30 -184 -74 -96 -25 -193 -55 -215 -67 -83 -43 -122 -120 -110
-222 12 -96 56 -144 165 -178 72 -22 353 -22 451 -1 l65 15 3 82 c3 96 6 95
-118 62 -55 -14 -106 -19 -190 -19 -155 1 -164 4 -168 57 -4 51 -11 47 195
102 178 46 218 61 257 98 40 38 56 82 56 156 0 100 -26 148 -100 186 -70 35
-244 53 -395 40z"/>
<path d="M19778 1780 c-130 -21 -230 -97 -259 -197 -18 -62 -18 -292 -1 -351
31 -104 128 -162 282 -170 106 -5 188 11 272 53 27 14 52 25 54 25 2 0 4 -45
4 -100 0 -122 -14 -162 -60 -179 -49 -16 -303 -14 -370 4 -102 27 -101 28 -98
-72 l3 -88 65 -12 c114 -20 260 -26 354 -14 122 17 185 42 234 95 70 76 72 91
72 573 l0 423 -31 0 c-20 0 -49 -13 -80 -36 l-49 -36 -30 26 c-17 14 -54 32
-83 41 -65 19 -204 27 -279 15z m339 -181 c23 -9 23 -9 21 -171 l-3 -162 -90
-23 c-95 -24 -233 -31 -279 -13 -14 5 -30 19 -37 31 -15 29 -24 170 -15 242
11 82 28 99 112 108 79 8 256 1 291 -12z"/>
<path d="M21995 1776 c-47 -15 -119 -51 -157 -77 l-26 -19 -37 50 c-35 48 -38
50 -86 50 l-49 0 0 -540 0 -540 100 0 100 0 0 166 c0 143 2 165 15 160 55 -21
199 -38 285 -33 122 7 182 28 240 87 66 65 82 116 87 280 9 245 -31 346 -157
404 -57 26 -252 33 -315 12z m210 -180 c45 -19 55 -58 55 -211 0 -214 -10
-225 -203 -225 -68 0 -145 3 -171 6 l-46 7 0 196 0 197 83 21 c99 25 233 29
282 9z"/>
<path d="M12826 1703 c-11 -132 -26 -235 -48 -318 -21 -82 -91 -242 -127 -294
-12 -16 -21 -41 -21 -55 l0 -27 118 3 117 3 42 85 c52 104 73 201 80 378 l6
132 158 0 159 0 0 -300 0 -300 100 0 100 0 0 385 0 385 -339 0 -339 0 -6 -77z"/>
<path d="M15680 1390 l0 -390 100 0 100 0 0 155 0 155 210 0 210 0 0 -155 0
-155 85 0 85 0 0 390 0 390 -85 0 -85 0 0 -145 0 -145 -210 0 -210 0 0 145 0
145 -100 0 -100 0 0 -390z"/>
<path d="M16760 1395 l0 -385 258 0 c141 0 277 5 302 11 111 25 160 92 168
229 10 189 -53 268 -235 290 -78 10 -192 3 -267 -16 l-25 -6 -3 128 -3 129
-97 3 -98 3 0 -386z m506 -29 c9 -13 14 -46 14 -98 0 -116 -4 -118 -180 -118
l-140 0 0 121 0 121 146 -4 c130 -3 147 -5 160 -22z"/>
<path d="M17640 1390 l0 -380 100 0 100 0 0 380 0 380 -100 0 -100 0 0 -380z"/>
<path d="M24740 1487 c0 -333 6 -367 74 -433 54 -51 113 -69 231 -69 103 0
161 17 251 71 l59 36 25 -33 c14 -18 34 -44 46 -58 l21 -24 64 48 c35 26 68
51 72 55 4 4 -3 29 -17 55 l-26 48 0 293 0 294 -100 0 -100 0 -2 -282 -3 -282
-90 -23 c-103 -26 -210 -30 -260 -9 -19 8 -36 16 -37 18 -1 2 -4 131 -7 288
l-6 285 -97 3 -98 3 0 -284z"/>
<path d="M10170 1659 c0 -128 12 -154 107 -232 40 -33 73 -64 73 -69 0 -4 -49
-74 -110 -155 -80 -106 -110 -154 -110 -175 l0 -28 108 0 109 0 56 78 c61 85
96 154 97 190 0 21 3 22 105 22 l105 0 0 -145 0 -145 100 0 100 0 0 145 0 145
110 0 c107 0 110 -1 110 -22 1 -36 36 -105 97 -190 l56 -78 109 0 108 0 0 27
c0 18 -36 74 -116 181 -115 153 -116 154 -94 169 67 47 139 115 153 146 12 25
17 63 17 136 l0 101 -103 0 -104 0 -7 -112 c-10 -170 -19 -178 -212 -178
l-124 0 0 145 0 145 -100 0 -100 0 0 -145 0 -145 -125 0 c-69 0 -135 5 -148
11 -37 17 -48 52 -54 171 l-6 108 -103 0 -104 0 0 -101z"/>
</g>
</svg>
